<?xml version="1.0" encoding="UTF-8"?>
<svg width="62px" height="51px" viewBox="0 0 62 51" version="1.1" xmlns="http://www.w3.org/2000/svg" xmlns:xlink="http://www.w3.org/1999/xlink">
    <!-- Generator: Sketch 46.2 (44496) - http://www.bohemiancoding.com/sketch -->
    <title>external_link</title>
    <desc>Created with Sketch.</desc>
    <defs></defs>
    <g id="Page-1" stroke="none" stroke-width="1" fill="none" fill-rule="evenodd">
        <g id="external_link" fill="#555555">
            <g id="Group" transform="translate(39.705717, 25.039780) rotate(55.000000) translate(-39.705717, -25.039780) translate(31.705717, -1.960220)">
                <rect id="Rectangle-2" x="5" y="11" width="5" height="42.7517857"></rect>
                <polygon id="Triangle" points="7.77512627 0 15.5502525 11 0 11"></polygon>
            </g>
            <path d="M40.0268555,14.0854492 L45.0458984,14.0854492 L45.0458984,9 C44.4902344,3.0172526 41.8904622,0.0522460938 37.246582,0.104980469 C32.6027018,0.157714844 22.9213867,0.131347656 8.20263672,0.0258789062 C2.67757161,0.794108073 -0.0221354167,3.78548177 0.103515625,9 C0.229166667,14.2145182 0.229166667,25.1661784 0.103515625,41.8549805 C0.0322265625,47.1541341 2.73193359,49.8492839 8.20263672,49.9404297 C13.6733398,50.0315755 23.3546549,50.0771484 37.246582,50.0771484 C42.4461263,49.8457031 45.0458984,47.1049805 45.0458984,41.8549805 C45.0458984,36.6049805 45.0458984,33.3225911 45.0458984,32.0078125 L40.0268555,32.0078125 L40.0268555,39.8969727 C39.8803711,43.2124023 38.2736003,44.874349 35.206543,44.8828125 C32.1394857,44.891276 23.8347982,44.8955078 10.2924805,44.8955078 C6.85595703,44.9749349 5.12988281,43.3087565 5.11425781,39.8969727 C5.09863281,36.4851888 5.10644531,26.5317383 5.13769531,10.0366211 C5.1110026,6.71142578 6.82926432,5.03320313 10.2924805,5.00195312 C13.7556966,4.97070312 22.0603841,4.97070312 35.206543,5.00195312 C38.4200846,5.12141927 40.0268555,6.79964193 40.0268555,10.0366211 C40.0268555,13.2736003 40.0268555,14.6232096 40.0268555,14.0854492 Z" id="Path-2"></path>
        </g>
    </g>
</svg>